<svg viewBox="0 0 544 543.0036630036631" xmlns:xlink="http://www.w3.org/1999/xlink" version="1.1" xmlns="http://www.w3.org/2000/svg" style="max-height: 500px" width="544" height="543.0036630036631"><g transform="matrix(1,0,0,1,-1.2121212121212466,-2.4208361715230353)"><svg xmlns:xlink="http://www.w3.org/1999/xlink" xmlns="http://www.w3.org/2000/svg" width="2000" height="545" preserveAspectRatio="xMidYMid meet" data-background-color="#ffffff" viewBox="0 0 396 108"><g transform="matrix(1,0,0,1,0.2400000000000091,0.4797253330724516)" id="tight-bounds"><svg width="395.52" height="107.04054933385511" viewBox="0 0 395.52 107.04054933385511"><g><svg width="395.52" height="107.04054933385511" viewBox="0 0 584.3211220106748 158.1362608398999"><g transform="matrix(1,0,0,1,188.80112201067482,46.5946248848946)"><svg width="395.52" height="64.9470110701107" viewBox="0 0 395.52 64.9470110701107"><g id="textblocktransform"><svg id="textblock" width="395.52" height="64.9470110701107" viewBox="0 0 395.52 64.9470110701107"><g><svg width="395.52" height="64.9470110701107" viewBox="0 0 395.52 64.9470110701107"><g transform="matrix(1,0,0,1,0,0)"><svg data-palette-color="#0074d9" height="64.9470110701107" viewBox="2.25 -21.75 136.48 22.25" width="395.52"><g id="text-0" data-fill-palette-color="primary" class="wordmark-text-0"><path data-fill-palette-color="primary" fill="#0074d9" d="M4 0.5L4 0.5Q3.35 0.5 2.8 0.03 2.25-0.45 2.25-1.1L2.25-1.1 2.25-17.25Q2.25-18.6 3.1-19.3 3.95-20 5-20L5-20 10.3-20Q12-20 13.48-19.33 14.95-18.65 15.85-17.35 16.75-16.05 16.75-14.15L16.75-14.15Q16.75-11.2 14.88-9.45 13-7.7 10.35-7.7L10.35-7.7 7-7.7Q5.75-7.7 5.75-6.2L5.75-6.2 5.75-1.1Q5.75-0.45 5.23 0.03 4.7 0.5 4 0.5ZM6.75-10.7L6.75-10.7 9.8-10.7Q11.05-10.7 12.23-11.45 13.4-12.2 13.4-14.05L13.4-14.05Q13.4-15.5 12.33-16.23 11.25-16.95 10-16.95L10-16.95 6.9-16.95Q5.65-16.95 5.65-15.75L5.65-15.75 5.65-12.05Q5.65-10.7 6.75-10.7ZM21.75 0.5L21.75 0.5Q21.1 0.5 20.57 0.1 20.05-0.3 20.05-1.05L20.05-1.05 20.05-13.05Q20.05-13.9 20.57-14.33 21.1-14.75 21.75-14.75L21.75-14.75Q22.4-14.75 22.92-14.33 23.45-13.9 23.45-13.05L23.45-13.05 23.45-1.05Q23.45-0.3 22.92 0.1 22.4 0.5 21.75 0.5ZM21.8-17.5L21.8-17.5Q20.85-17.5 20.17-18.13 19.5-18.75 19.5-19.65L19.5-19.65Q19.5-20.5 20.17-21.13 20.85-21.75 21.8-21.75L21.8-21.75Q22.7-21.75 23.35-21.13 24-20.5 24-19.65L24-19.65Q24-18.75 23.35-18.13 22.7-17.5 21.8-17.5ZM27.99 0.5L27.99 0.5Q27.34 0.5 26.79-0.03 26.24-0.55 26.24-1.2L26.24-1.2Q26.24-1.8 26.69-2.25L26.69-2.25 30.99-6.75Q31.24-7.1 31.24-7.3L31.24-7.3Q31.24-7.6 30.99-7.85L30.99-7.85 26.94-12.05Q26.59-12.45 26.59-13L26.59-13Q26.59-13.7 27.19-14.23 27.79-14.75 28.44-14.75L28.44-14.75Q28.74-14.75 29.07-14.63 29.39-14.5 29.64-14.15L29.64-14.15 32.95-10.2Q33.3-9.85 33.49-9.85L33.49-9.85Q33.8-9.85 34.05-10.2L34.05-10.2 37.34-14.15Q37.59-14.5 37.92-14.63 38.24-14.75 38.55-14.75L38.55-14.75Q39.24-14.75 39.8-14.2 40.34-13.65 40.34-12.95L40.34-12.95Q40.34-12.4 39.99-12L39.99-12 36.05-7.85Q35.84-7.65 35.84-7.3L35.84-7.3Q35.84-7 36.05-6.75L36.05-6.75 40.3-2.25Q40.74-1.8 40.74-1.2L40.74-1.2Q40.74-0.55 40.2-0.03 39.64 0.5 38.99 0.5L38.99 0.5Q38.34 0.5 37.84 0L37.84 0 34.05-4.45Q33.84-4.8 33.49-4.8L33.49-4.8Q33.24-4.8 32.95-4.45L32.95-4.45 29.14 0Q28.64 0.5 27.99 0.5ZM50.44 0.5L50.44 0.5Q46.69 0.5 44.59-1.65 42.49-3.8 42.49-7.45L42.49-7.45Q42.49-10.65 44.62-12.7 46.74-14.75 50.09-14.75L50.09-14.75Q53.34-14.75 55.29-12.88 57.24-11 57.24-8.25L57.24-8.25Q57.24-7.15 56.67-6.6 56.09-6.05 55.19-6.05L55.19-6.05 46.49-6.05Q45.99-6.05 46.14-5.5L46.14-5.5Q46.54-4.1 47.77-3.33 48.99-2.55 50.54-2.55L50.54-2.55Q51.69-2.55 52.77-2.85 53.84-3.15 54.64-3.75L54.64-3.75Q54.89-3.95 55.29-3.95L55.29-3.95Q55.84-3.95 56.29-3.48 56.74-3 56.74-2.35L56.74-2.35Q56.74-2.05 56.64-1.75 56.54-1.45 56.19-1.15L56.19-1.15Q54.89-0.2 53.42 0.15 51.94 0.5 50.44 0.5ZM46.59-8.7L53.34-8.65Q53.64-8.65 53.64-8.95L53.64-8.95Q53.64-10.1 52.62-10.95 51.59-11.8 50.09-11.8L50.09-11.8Q48.79-11.8 47.62-11.1 46.44-10.4 46.19-9.25L46.19-9.25Q46.19-9.25 46.19-9.2L46.19-9.2Q46.14-9 46.17-8.85 46.19-8.7 46.59-8.7L46.59-8.7ZM61.94 0.5L61.94 0.5Q61.29 0.5 60.77 0.1 60.24-0.3 60.24-1.05L60.24-1.05 60.24-20.05Q60.24-20.9 60.77-21.33 61.29-21.75 61.94-21.75L61.94-21.75Q62.59-21.75 63.12-21.33 63.64-20.9 63.64-20.05L63.64-20.05 63.64-1.05Q63.64-0.3 63.12 0.1 62.59 0.5 61.94 0.5ZM83.39-1.1L83.39-1.1Q82.54-0.45 80.74 0.03 78.94 0.5 77.19 0.5L77.19 0.5Q74.29 0.5 71.99-0.85 69.69-2.2 68.34-4.6 66.99-7 66.99-10.1L66.99-10.1Q66.99-13.15 68.29-15.5 69.59-17.85 71.96-19.18 74.34-20.5 77.49-20.5L77.49-20.5Q78.74-20.5 79.96-20.3 81.19-20.1 82.44-19.6L82.44-19.6Q82.94-19.35 83.16-18.93 83.39-18.5 83.39-18.1L83.39-18.1Q83.39-17.45 82.96-16.95 82.54-16.45 81.84-16.45L81.84-16.45Q81.54-16.45 81.14-16.6L81.14-16.6Q80.34-16.9 79.26-17.15 78.19-17.4 77.14-17.4L77.14-17.4Q75.14-17.4 73.64-16.38 72.14-15.35 71.31-13.65 70.49-11.95 70.49-9.9L70.49-9.9Q70.49-6.85 72.34-4.7 74.19-2.55 77.24-2.55L77.24-2.55Q78.59-2.55 79.89-2.98 81.19-3.4 81.84-3.9L81.84-3.9Q82.39-4.2 82.79-4.2L82.79-4.2Q83.44-4.2 83.84-3.73 84.24-3.25 84.24-2.65L84.24-2.65Q84.24-1.75 83.39-1.1ZM90.64-7.4L90.64-7.4 90.64-1.05Q90.64-0.3 90.11 0.1 89.59 0.5 88.94 0.5L88.94 0.5Q88.29 0.5 87.76 0.1 87.24-0.3 87.24-1.05L87.24-1.05 87.24-12.8Q87.24-13.65 87.76-14.08 88.29-14.5 88.94-14.5L88.94-14.5Q89.59-14.5 90.11-14.08 90.64-13.65 90.64-12.8L90.64-12.8 90.64-12.6Q91.34-13.55 92.46-14.15 93.59-14.75 94.84-14.75L94.84-14.75Q95.44-14.75 96.04-14.6L96.04-14.6Q96.64-14.45 96.94-14 97.24-13.55 97.24-13L97.24-13Q97.24-12.35 96.81-11.83 96.39-11.3 95.59-11.3L95.59-11.3Q95.24-11.3 94.86-11.4 94.49-11.5 93.94-11.5L93.94-11.5Q92.49-11.5 91.56-10.4 90.64-9.3 90.64-7.4ZM105.93 0.5L105.93 0.5Q103.78 0.5 102.08-0.5 100.38-1.5 99.43-3.28 98.48-5.05 98.48-7.25L98.48-7.25Q98.48-9.4 99.43-11.1 100.38-12.8 102.08-13.78 103.78-14.75 105.93-14.75L105.93-14.75Q107.33-14.75 108.43-14.28 109.53-13.8 110.33-13.05L110.33-13.05Q110.43-13.75 110.93-14.13 111.43-14.5 112.03-14.5L112.03-14.5Q112.68-14.5 113.21-14.08 113.73-13.65 113.73-12.8L113.73-12.8 113.73-1.05Q113.73-0.3 113.21 0.1 112.68 0.5 112.03 0.5L112.03 0.5Q111.38 0.5 110.86 0.1 110.33-0.3 110.33-1.05L110.33-1.05 110.33-1.25Q109.53-0.45 108.43 0.03 107.33 0.5 105.93 0.5ZM106.23-2.6L106.23-2.6Q108.13-2.6 109.23-3.88 110.33-5.15 110.33-7.25L110.33-7.25Q110.33-9.25 109.23-10.45 108.13-11.65 106.23-11.65L106.23-11.65Q104.28-11.65 103.08-10.45 101.88-9.25 101.88-7.25L101.88-7.25Q101.88-5.15 103.08-3.88 104.28-2.6 106.23-2.6ZM120.58 0.5L120.58 0.5Q119.83 0.5 119.38 0.05 118.93-0.4 118.93-1.1L118.93-1.1 118.93-10.65Q118.93-11.15 118.43-11.15L118.43-11.15 117.28-11.15Q116.63-11.15 116.18-11.58 115.73-12 115.73-12.65L115.73-12.65Q115.73-13.35 116.18-13.8 116.63-14.25 117.28-14.25L117.28-14.25 118.43-14.25Q118.93-14.25 118.93-14.75L118.93-14.75 118.93-16.05Q118.93-18.55 120.26-20.03 121.58-21.5 124.03-21.5L124.03-21.5Q124.58-21.5 125.16-21.38 125.73-21.25 126.03-21.15L126.03-21.15Q126.98-20.8 126.98-19.75L126.98-19.75Q126.98-18.95 126.51-18.53 126.03-18.1 125.38-18.1L125.38-18.1Q125.03-18.1 124.73-18.2 124.43-18.3 123.88-18.3L123.88-18.3Q123.03-18.3 122.68-17.7 122.33-17.1 122.33-15.95L122.33-15.95 122.33-14.75Q122.33-14.25 122.83-14.25L122.83-14.25 124.98-14.25Q125.58-14.25 126.03-13.8 126.48-13.35 126.48-12.65L126.48-12.65Q126.48-12 126.06-11.58 125.63-11.15 124.93-11.15L124.93-11.15 122.83-11.15Q122.33-11.15 122.33-10.65L122.33-10.65 122.33-1.1Q122.33-0.4 121.83 0.05 121.33 0.5 120.58 0.5ZM134.88 0.5L134.88 0.5Q132.93 0.5 131.68-0.7 130.43-1.9 130.43-4.3L130.43-4.3 130.43-10.65Q130.43-11.15 129.93-11.15L129.93-11.15 129.03-11.15Q128.38-11.15 127.93-11.58 127.48-12 127.48-12.65L127.48-12.65Q127.48-13.35 127.93-13.8 128.38-14.25 129.03-14.25L129.03-14.25 129.93-14.25Q130.43-14.25 130.43-14.75L130.43-14.75 130.43-18.95Q130.43-19.65 130.9-20.08 131.38-20.5 132.08-20.5L132.08-20.5Q132.83-20.5 133.3-20.08 133.78-19.65 133.78-18.95L133.78-18.95 133.78-14.75Q133.78-14.25 134.28-14.25L134.28-14.25 136.98-14.25Q137.58-14.25 138.03-13.8 138.48-13.35 138.48-12.65L138.48-12.65Q138.48-12 138.05-11.58 137.63-11.15 136.93-11.15L136.93-11.15 134.28-11.15Q133.78-11.15 133.78-10.65L133.78-10.65 133.78-4.75Q133.78-2.65 135.48-2.65L135.48-2.65Q135.98-2.65 136.53-2.8 137.08-2.95 137.28-2.95L137.28-2.95Q137.98-2.95 138.35-2.5 138.73-2.05 138.73-1.45L138.73-1.45Q138.73-1 138.48-0.58 138.23-0.15 137.68 0.05L137.68 0.05Q137.13 0.25 136.3 0.38 135.48 0.5 134.88 0.5Z"/></g></svg></g></svg></g></svg></g></svg></g><g><svg width="158.1362608398999" height="158.1362608398999" viewBox="0 0 158.1362608398999 158.1362608398999"><g><svg/></g><g id="icon-0"><svg width="158.1362608398999" height="158.1362608398999" viewBox="0 0 158.1362608398999 158.1362608398999"><g/><g transform="matrix(1,0,0,1,33.311548876021234,42.23381985735259)"><svg width="91.51316308785744" height="73.66862112519472" viewBox="0 0 91.51316308785744 73.66862112519472"><g><svg id="dxe-0" data-fill-palette-color="accent" class="icon-dxe-0" width="91.51316308785744" height="73.66862112519472" xml:space="preserve" style="enable-background:new 0 0 100 100;" viewBox="17.266 23.412 68.00200000000001 54.742" y="0" x="0" version="1.1" xmlns:xlink="http://www.w3.org/1999/xlink" xmlns="http://www.w3.org/2000/svg"/></g></svg></g></svg></g></svg></g></svg></g><defs/><mask id="313a1e40-bca0-4e83-b3a6-1182fdcbc42c"><g id="SvgjsG1215"><svg width="395.52" height="107.04054933385511" viewBox="0 0 395.52 107.04054933385511"><g><svg width="395.52" height="107.04054933385511" viewBox="0 0 584.3211220106748 158.1362608398999"><g transform="matrix(1,0,0,1,188.80112201067482,46.5946248848946)"><svg width="395.52" height="64.9470110701107" viewBox="0 0 395.52 64.9470110701107"><g id="SvgjsG1214"><svg id="SvgjsSvg1213" width="395.52" height="64.9470110701107" viewBox="0 0 395.52 64.9470110701107"><g><svg width="395.52" height="64.9470110701107" viewBox="0 0 395.52 64.9470110701107"><g transform="matrix(1,0,0,1,0,0)"><svg data-palette-color="#0074d9" height="64.9470110701107" viewBox="2.25 -21.75 136.48 22.25" width="395.52"><g id="SvgjsG1212" data-fill-palette-color="primary" class="wordmark-text-0"><path fill="black" d="M4 0.5L4 0.5Q3.35 0.5 2.8 0.03 2.25-0.45 2.25-1.1L2.25-1.1 2.25-17.25Q2.25-18.6 3.1-19.3 3.95-20 5-20L5-20 10.3-20Q12-20 13.48-19.33 14.95-18.65 15.85-17.35 16.75-16.05 16.75-14.15L16.75-14.15Q16.75-11.2 14.88-9.45 13-7.7 10.35-7.7L10.35-7.7 7-7.7Q5.75-7.7 5.75-6.2L5.75-6.2 5.75-1.1Q5.75-0.45 5.23 0.03 4.7 0.5 4 0.5ZM6.75-10.7L6.75-10.7 9.8-10.7Q11.05-10.7 12.23-11.45 13.4-12.2 13.4-14.05L13.4-14.05Q13.4-15.5 12.33-16.23 11.25-16.95 10-16.95L10-16.95 6.9-16.95Q5.65-16.95 5.65-15.75L5.65-15.75 5.65-12.05Q5.65-10.7 6.75-10.7ZM21.75 0.5L21.75 0.5Q21.1 0.5 20.57 0.1 20.05-0.3 20.05-1.05L20.05-1.05 20.05-13.05Q20.05-13.9 20.57-14.33 21.1-14.75 21.75-14.75L21.75-14.75Q22.4-14.75 22.92-14.33 23.45-13.9 23.45-13.05L23.45-13.05 23.45-1.05Q23.45-0.3 22.92 0.1 22.4 0.5 21.75 0.5ZM21.8-17.5L21.8-17.5Q20.85-17.5 20.17-18.13 19.5-18.75 19.5-19.65L19.5-19.65Q19.5-20.5 20.17-21.13 20.85-21.75 21.8-21.75L21.8-21.75Q22.7-21.75 23.35-21.13 24-20.5 24-19.65L24-19.65Q24-18.75 23.35-18.13 22.7-17.5 21.8-17.5ZM27.99 0.5L27.99 0.5Q27.34 0.5 26.79-0.03 26.24-0.55 26.24-1.2L26.24-1.2Q26.24-1.8 26.69-2.25L26.69-2.25 30.99-6.75Q31.24-7.1 31.24-7.3L31.24-7.3Q31.24-7.6 30.99-7.85L30.99-7.85 26.94-12.05Q26.59-12.45 26.59-13L26.59-13Q26.59-13.7 27.19-14.23 27.79-14.75 28.44-14.75L28.44-14.75Q28.74-14.75 29.07-14.63 29.39-14.5 29.64-14.15L29.64-14.15 32.95-10.2Q33.3-9.85 33.49-9.85L33.49-9.85Q33.8-9.85 34.05-10.2L34.05-10.2 37.34-14.15Q37.59-14.5 37.92-14.63 38.24-14.75 38.55-14.75L38.55-14.75Q39.24-14.75 39.8-14.2 40.34-13.65 40.34-12.95L40.34-12.95Q40.34-12.4 39.99-12L39.99-12 36.05-7.85Q35.84-7.65 35.84-7.3L35.84-7.3Q35.84-7 36.05-6.75L36.05-6.75 40.3-2.25Q40.74-1.8 40.74-1.2L40.74-1.2Q40.74-0.55 40.2-0.03 39.64 0.5 38.99 0.5L38.99 0.5Q38.34 0.5 37.84 0L37.84 0 34.05-4.45Q33.84-4.8 33.49-4.8L33.49-4.8Q33.24-4.8 32.95-4.45L32.95-4.45 29.14 0Q28.64 0.5 27.99 0.5ZM50.44 0.5L50.44 0.5Q46.69 0.5 44.59-1.65 42.49-3.8 42.49-7.45L42.49-7.45Q42.49-10.65 44.62-12.7 46.74-14.75 50.09-14.75L50.09-14.75Q53.34-14.75 55.29-12.88 57.24-11 57.24-8.25L57.24-8.25Q57.24-7.15 56.67-6.6 56.09-6.05 55.19-6.05L55.19-6.05 46.49-6.05Q45.99-6.05 46.14-5.5L46.14-5.5Q46.54-4.1 47.77-3.33 48.99-2.55 50.54-2.55L50.54-2.55Q51.69-2.55 52.77-2.85 53.84-3.15 54.64-3.75L54.64-3.75Q54.89-3.95 55.29-3.95L55.29-3.95Q55.84-3.95 56.29-3.48 56.74-3 56.74-2.35L56.74-2.35Q56.74-2.05 56.64-1.75 56.54-1.45 56.19-1.15L56.19-1.15Q54.89-0.2 53.42 0.15 51.94 0.5 50.44 0.5ZM46.59-8.7L53.34-8.65Q53.64-8.65 53.64-8.95L53.64-8.95Q53.64-10.1 52.62-10.95 51.59-11.8 50.09-11.8L50.09-11.8Q48.79-11.8 47.62-11.1 46.44-10.4 46.19-9.25L46.19-9.25Q46.19-9.25 46.19-9.2L46.19-9.2Q46.14-9 46.17-8.85 46.19-8.7 46.59-8.7L46.59-8.7ZM61.94 0.5L61.94 0.5Q61.29 0.5 60.77 0.1 60.24-0.3 60.24-1.05L60.24-1.05 60.24-20.05Q60.24-20.9 60.77-21.33 61.29-21.75 61.94-21.75L61.94-21.75Q62.59-21.75 63.12-21.33 63.64-20.9 63.64-20.05L63.64-20.05 63.64-1.05Q63.64-0.3 63.12 0.1 62.59 0.5 61.94 0.5ZM83.39-1.1L83.39-1.1Q82.54-0.45 80.74 0.03 78.94 0.5 77.19 0.5L77.19 0.5Q74.29 0.5 71.99-0.85 69.69-2.2 68.34-4.6 66.99-7 66.99-10.1L66.99-10.1Q66.99-13.15 68.29-15.5 69.59-17.85 71.96-19.18 74.34-20.5 77.49-20.5L77.49-20.5Q78.74-20.5 79.96-20.3 81.19-20.1 82.44-19.6L82.44-19.6Q82.94-19.35 83.16-18.93 83.39-18.5 83.39-18.1L83.39-18.1Q83.39-17.45 82.96-16.95 82.54-16.45 81.84-16.45L81.84-16.45Q81.54-16.45 81.14-16.6L81.14-16.6Q80.34-16.9 79.26-17.15 78.19-17.4 77.14-17.4L77.14-17.4Q75.14-17.4 73.64-16.38 72.14-15.35 71.31-13.65 70.49-11.95 70.49-9.9L70.49-9.9Q70.49-6.85 72.34-4.7 74.19-2.55 77.24-2.55L77.24-2.55Q78.59-2.55 79.89-2.98 81.19-3.4 81.84-3.9L81.84-3.9Q82.39-4.2 82.79-4.2L82.79-4.2Q83.44-4.2 83.84-3.73 84.24-3.25 84.24-2.65L84.24-2.65Q84.24-1.75 83.39-1.1ZM90.64-7.4L90.64-7.4 90.64-1.05Q90.64-0.3 90.11 0.1 89.59 0.5 88.94 0.5L88.94 0.5Q88.29 0.5 87.76 0.1 87.24-0.3 87.24-1.05L87.24-1.05 87.24-12.8Q87.24-13.65 87.76-14.08 88.29-14.5 88.94-14.5L88.94-14.5Q89.59-14.5 90.11-14.08 90.64-13.65 90.64-12.8L90.64-12.8 90.64-12.6Q91.34-13.55 92.46-14.15 93.59-14.75 94.84-14.75L94.84-14.75Q95.44-14.75 96.04-14.6L96.04-14.6Q96.64-14.45 96.94-14 97.24-13.55 97.24-13L97.24-13Q97.24-12.35 96.81-11.83 96.39-11.3 95.59-11.3L95.59-11.3Q95.24-11.3 94.86-11.4 94.49-11.5 93.94-11.5L93.94-11.5Q92.49-11.5 91.56-10.4 90.64-9.3 90.64-7.4ZM105.93 0.5L105.93 0.5Q103.78 0.5 102.08-0.5 100.38-1.5 99.43-3.28 98.48-5.05 98.48-7.25L98.48-7.25Q98.48-9.4 99.43-11.1 100.38-12.8 102.08-13.78 103.78-14.75 105.93-14.75L105.93-14.75Q107.33-14.75 108.43-14.28 109.53-13.8 110.33-13.05L110.33-13.05Q110.43-13.75 110.93-14.13 111.43-14.5 112.03-14.5L112.03-14.5Q112.68-14.5 113.21-14.08 113.73-13.65 113.73-12.8L113.73-12.8 113.73-1.05Q113.73-0.3 113.21 0.1 112.68 0.5 112.03 0.5L112.03 0.5Q111.38 0.5 110.86 0.1 110.33-0.3 110.33-1.05L110.33-1.05 110.33-1.25Q109.53-0.45 108.43 0.03 107.33 0.5 105.93 0.5ZM106.23-2.6L106.23-2.6Q108.13-2.6 109.23-3.88 110.33-5.15 110.33-7.25L110.33-7.25Q110.33-9.25 109.23-10.45 108.13-11.65 106.23-11.65L106.23-11.65Q104.28-11.65 103.08-10.45 101.88-9.25 101.88-7.25L101.88-7.25Q101.88-5.15 103.08-3.88 104.28-2.6 106.23-2.6ZM120.58 0.5L120.58 0.5Q119.83 0.5 119.38 0.05 118.93-0.4 118.93-1.1L118.93-1.1 118.93-10.65Q118.93-11.15 118.43-11.15L118.43-11.15 117.28-11.15Q116.63-11.15 116.18-11.58 115.73-12 115.73-12.65L115.73-12.65Q115.73-13.35 116.18-13.8 116.63-14.25 117.28-14.25L117.28-14.25 118.43-14.25Q118.93-14.25 118.93-14.75L118.93-14.75 118.93-16.05Q118.93-18.55 120.26-20.03 121.58-21.5 124.03-21.5L124.03-21.5Q124.58-21.5 125.16-21.38 125.73-21.25 126.03-21.15L126.03-21.15Q126.98-20.8 126.98-19.75L126.98-19.75Q126.98-18.95 126.51-18.53 126.03-18.1 125.38-18.1L125.38-18.1Q125.03-18.1 124.73-18.2 124.43-18.3 123.88-18.3L123.88-18.3Q123.03-18.3 122.68-17.7 122.33-17.1 122.33-15.95L122.33-15.95 122.33-14.75Q122.33-14.25 122.83-14.25L122.83-14.25 124.98-14.25Q125.58-14.25 126.03-13.8 126.48-13.35 126.48-12.65L126.48-12.65Q126.48-12 126.06-11.58 125.63-11.15 124.93-11.15L124.93-11.15 122.83-11.15Q122.33-11.15 122.33-10.65L122.33-10.65 122.33-1.1Q122.33-0.4 121.83 0.05 121.33 0.5 120.58 0.5ZM134.88 0.5L134.88 0.5Q132.93 0.5 131.68-0.7 130.43-1.9 130.43-4.3L130.43-4.3 130.43-10.65Q130.43-11.15 129.93-11.15L129.93-11.15 129.03-11.15Q128.38-11.15 127.93-11.58 127.48-12 127.48-12.65L127.48-12.65Q127.48-13.35 127.93-13.8 128.38-14.25 129.03-14.25L129.03-14.25 129.93-14.25Q130.43-14.25 130.43-14.75L130.43-14.75 130.43-18.95Q130.43-19.65 130.9-20.08 131.38-20.5 132.08-20.5L132.08-20.5Q132.83-20.5 133.3-20.08 133.78-19.65 133.78-18.95L133.78-18.95 133.78-14.75Q133.78-14.25 134.28-14.25L134.28-14.25 136.98-14.25Q137.58-14.25 138.03-13.8 138.48-13.35 138.48-12.65L138.48-12.65Q138.48-12 138.05-11.58 137.63-11.15 136.93-11.15L136.93-11.15 134.28-11.15Q133.78-11.15 133.78-10.65L133.78-10.65 133.78-4.75Q133.78-2.65 135.48-2.65L135.48-2.65Q135.98-2.65 136.53-2.8 137.08-2.95 137.28-2.95L137.28-2.95Q137.98-2.95 138.35-2.5 138.73-2.05 138.73-1.45L138.73-1.45Q138.73-1 138.48-0.58 138.23-0.15 137.68 0.05L137.68 0.05Q137.13 0.25 136.3 0.38 135.48 0.5 134.88 0.5Z"/></g></svg></g></svg></g></svg></g></svg></g><g><svg width="158.1362608398999" height="158.1362608398999" viewBox="0 0 158.1362608398999 158.1362608398999"><g><svg/></g><g id="SvgjsG1211"><svg width="158.1362608398999" height="158.1362608398999" viewBox="0 0 158.1362608398999 158.1362608398999"><g><path stroke="transparent" fill="white" d="M0 79.068c0-43.668 35.4-79.068 79.068-79.068 43.668 0 79.068 35.4 79.068 79.068 0 43.668-35.4 79.068-79.068 79.068-43.668 0-79.068-35.4-79.068-79.068zM79.068 152.279c40.433 0 73.211-32.778 73.211-73.211 0-40.433-32.778-73.211-73.211-73.211-40.433 0-73.211 32.778-73.211 73.211 0 40.433 32.778 73.211 73.211 73.211z"/></g><g transform="matrix(1,0,0,1,33.311548876021234,42.23381985735259)"><svg width="91.51316308785744" height="73.66862112519472" viewBox="0 0 91.51316308785744 73.66862112519472"><g><svg id="SvgjsSvg1210" data-fill-palette-color="accent" class="icon-dxe-0" width="91.51316308785744" height="73.66862112519472" xml:space="preserve" style="enable-background:new 0 0 100 100;" viewBox="17.266 23.412 68.00200000000001 54.742" y="0" x="0" version="1.1" xmlns:xlink="http://www.w3.org/1999/xlink" xmlns="http://www.w3.org/2000/svg"><g fill="white"><path fill="white" d="M71.599 78.154H30.935C23.398 78.154 17.266 72.023 17.266 64.486V37.081C17.266 29.544 23.397 23.412 30.935 23.412H71.6C79.136 23.412 85.268 29.543 85.268 37.081V64.486C85.267 72.023 79.136 78.154 71.599 78.154M30.935 27.557C25.683 27.557 21.41 31.83 21.41 37.082V64.487C21.41 69.738 25.683 74.011 30.935 74.011H71.6C76.852 74.011 81.124 69.738 81.124 64.487V37.081C81.124 31.829 76.852 27.556 71.6 27.556z"/><path fill="white" d="M60.66 60.875C60.233 60.875 59.808 60.71 59.487 60.389L39.987 40.889 21.22 52.879A1.657 1.657 0 1 1 19.434 50.085L39.324 37.379A1.66 1.66 0 0 1 41.389 37.604L60.851 57.065 72.421 49.017A1.66 1.66 0 0 1 74.459 49.13L83.298 56.864A1.657 1.657 0 0 1 81.114 59.36L73.25 52.48 61.605 60.58A1.65 1.65 0 0 1 60.66 60.875"/><path fill="white" d="M63.422 49.273C58.853 49.273 55.135 45.555 55.135 40.986S58.853 32.699 63.422 32.699 71.709 36.417 71.709 40.986 67.992 49.273 63.422 49.273M63.422 36.013A4.977 4.977 0 0 0 58.45 40.985C58.45 43.727 60.68 45.957 63.422 45.957S68.394 43.727 68.394 40.985A4.977 4.977 0 0 0 63.422 36.013"/></g></svg></g></svg></g></svg></g></svg></g></svg></g><defs><mask/></defs></svg><rect visibility="hidden" stroke="none" fill="black" height="107.04054933385511" width="395.52"/></g></mask><linearGradient id="a765384b-d36f-4af7-912d-3249e0b3119f" y2="0.55" y1="0.548" x2="1" x1="0"><stop offset="0" stop-color="#ff6cab"/><stop offset="1" stop-color="#7366ff"/></linearGradient><rect data-fill-palette-color="accent" mask="url(#313a1e40-bca0-4e83-b3a6-1182fdcbc42c)" fill="url(#a765384b-d36f-4af7-912d-3249e0b3119f)" height="107.04054933385511" width="395.52"/></svg><rect visibility="hidden" stroke="none" fill="none" height="107.04054933385511" width="395.52"/></g></svg></g></svg>